<svg width="82" height="82" viewBox="0 0 82 82" fill="none" xmlns="http://www.w3.org/2000/svg">
<path d="M40.9997 30.3256C35.1219 30.3256 30.3252 35.1222 30.3252 41C30.3252 46.8777 35.1219 51.6744 40.9997 51.6744C46.8774 51.6744 51.6741 46.8777 51.6741 41C51.6741 35.1222 46.8774 30.3256 40.9997 30.3256ZM73.0149 41C73.0149 36.5796 73.0549 32.1994 72.8067 27.7871C72.5585 22.6621 71.3893 18.1136 67.6417 14.366C63.886 10.6103 59.3456 9.44918 54.2206 9.20094C49.8002 8.9527 45.42 8.99274 41.0077 8.99274C36.5873 8.99274 32.2071 8.9527 27.7948 9.20094C22.6698 9.44918 18.1213 10.6183 14.3737 14.366C10.618 18.1216 9.45687 22.6621 9.20863 27.7871C8.96039 32.2074 9.00043 36.5877 9.00043 41C9.00043 45.4123 8.96039 49.8005 9.20863 54.2129C9.45687 59.3378 10.626 63.8863 14.3737 67.6339C18.1293 71.3896 22.6698 72.5507 27.7948 72.799C32.2151 73.0472 36.5954 73.0072 41.0077 73.0072C45.428 73.0072 49.8083 73.0472 54.2206 72.799C59.3456 72.5507 63.894 71.3816 67.6417 67.6339C71.3973 63.8783 72.5585 59.3378 72.8067 54.2129C73.063 49.8005 73.0149 45.4203 73.0149 41ZM40.9997 57.424C31.9108 57.424 24.5756 50.0888 24.5756 41C24.5756 31.9111 31.9108 24.5759 40.9997 24.5759C50.0885 24.5759 57.4237 31.9111 57.4237 41C57.4237 50.0888 50.0885 57.424 40.9997 57.424ZM58.0963 27.739C55.9743 27.739 54.2606 26.0254 54.2606 23.9033C54.2606 21.7812 55.9743 20.0675 58.0963 20.0675C60.2184 20.0675 61.9321 21.7812 61.9321 23.9033C61.9327 24.4072 61.8339 24.9062 61.6414 25.3719C61.4489 25.8376 61.1663 26.2607 60.81 26.617C60.4537 26.9733 60.0306 27.2558 59.565 27.4483C59.0993 27.6409 58.6002 27.7397 58.0963 27.739Z" fill="black"/>
</svg>
