<svg width="82" height="82" viewBox="0 0 82 82" fill="none" xmlns="http://www.w3.org/2000/svg">
<path d="M68.3333 10.25H13.6667C12.7605 10.25 11.8915 10.61 11.2507 11.2507C10.61 11.8915 10.25 12.7605 10.25 13.6667V68.3333C10.25 69.2395 10.61 70.1085 11.2507 70.7493C11.8915 71.39 12.7605 71.75 13.6667 71.75H43.1012V47.97H35.1131V38.6596H43.1012V31.8262C43.1012 23.8825 47.9529 19.5536 55.0596 19.5536C57.4478 19.5468 59.8395 19.6698 62.2175 19.9192V28.1875H57.3146C53.4606 28.1875 52.7089 30.0257 52.7089 32.7146V38.6425H61.9237L60.7278 47.9529H52.7055V71.75H68.3333C69.2395 71.75 70.1085 71.39 70.7493 70.7493C71.39 70.1085 71.75 69.2395 71.75 68.3333V13.6667C71.75 12.7605 71.39 11.8915 70.7493 11.2507C70.1085 10.61 69.2395 10.25 68.3333 10.25Z" fill="black"/>
</svg>
